<svg viewBox="29 2 19 18" fill="none" xmlns="http://www.w3.org/2000/svg">
<g id="Instagram [Vectorized]">
<path id="Vector" d="M34.3534 2.18776C35.8455 2.12682 37.6811 2.21331 39.2023 2.18492C40.0381 2.16932 42.4128 2.13279 43.1042 2.27431C43.9983 2.45043 44.8341 2.84539 45.5364 3.42352C46.6023 4.31337 47.1884 5.57186 47.3403 6.9442C47.3862 7.35936 47.364 7.99896 47.3636 8.43818L47.3606 10.8771L47.3644 13.4205C47.367 15.2785 47.3471 16.5082 46.0706 18.0164C45.2112 19.014 43.9949 19.639 42.6797 19.7591C40.9904 19.8051 39.2237 19.7697 37.524 19.777C36.3101 19.7823 34.845 19.8387 33.6699 19.654C33.0258 19.5527 32.2914 19.1615 31.762 18.7902C30.6873 18.0366 29.9345 16.7909 29.721 15.5026C29.6117 14.8431 29.6397 14.1498 29.6403 13.4775L29.6432 10.8719L29.6399 8.35815C29.6384 6.84194 29.6364 5.76058 30.5479 4.4402C31.5011 3.05943 32.7237 2.46264 34.3534 2.18776ZM39.0831 15.3342C41.4969 15.0114 43.1895 12.8014 42.8628 10.3997C42.5361 7.99807 40.3137 6.31555 37.9007 6.64297C35.4909 6.96998 33.8029 9.17799 34.1292 11.5764C34.4555 13.9748 36.6727 15.6566 39.0831 15.3342ZM43.7264 6.55868C43.9655 6.49919 44.1276 6.44935 44.2626 6.22531C44.3603 6.06252 44.387 5.86717 44.337 5.68421C44.2302 5.28616 43.9494 5.20111 43.5847 5.15958C43.1677 5.25952 42.8293 5.5643 42.9482 6.02443C42.9933 6.19261 43.1031 6.33636 43.2538 6.42432C43.4027 6.51187 43.558 6.53611 43.7264 6.55868Z" fill="var(--fill-0, #57544A)"/>
<path id="Vector_2" d="M38.0932 8.09244C39.6963 7.87229 41.1769 8.9821 41.407 10.5762C41.6371 12.1704 40.5302 13.6501 38.9297 13.8879C37.3163 14.1276 35.8151 13.0154 35.5831 11.4088C35.3512 9.80205 36.4772 8.31428 38.0932 8.09244Z" fill="var(--fill-0, #57544A)"/>
</g>
</svg>
