<svg viewBox="29 2 18 18" fill="none" xmlns="http://www.w3.org/2000/svg">
<g id="LinkedIn [Vectorized]">
<path id="Vector" d="M31.0776 2.93997C31.5511 2.89369 32.5205 2.92121 33.0364 2.92128L36.769 2.92255L41.8223 2.92051C42.688 2.91925 44.4811 2.79902 45.2972 3.09284C46.0323 3.35763 46.124 4.37437 46.1017 5.04263C46.0813 5.66081 46.1013 6.39589 46.1006 7.06511L46.0976 11.7095L46.0999 15.5143C46.1006 16.1836 46.1166 16.8604 46.0928 17.5285C46.0631 18.3522 45.6382 18.8167 44.8756 19.0324C44.2214 19.0867 43.2684 19.0584 42.5927 19.0582L38.5937 19.0564L34.0753 19.0569C33.232 19.0593 32.394 19.0701 31.5463 19.0556C30.9768 19.0889 30.1145 18.7103 29.9981 18.0817C29.827 17.1578 29.9007 15.8934 29.9017 14.939L29.905 10.4305L29.9023 6.50918C29.9018 5.82704 29.8975 5.14652 29.9084 4.46437C29.9206 3.70023 30.3371 3.15383 31.0776 2.93997ZM38.4271 9.21089C38.3329 9.19926 38.2379 9.19244 38.1425 9.19041C37.758 9.18344 36.8765 9.17518 36.4569 9.21422C36.4305 9.23952 36.4081 9.26111 36.3895 9.27893C36.302 9.70037 36.2602 15.8438 36.3464 16.0553C36.4046 16.0857 36.4208 16.08 36.4846 16.0703C36.7756 16.1461 38.1525 16.1062 38.524 16.097C38.5039 14.9104 38.4661 13.8439 38.5017 12.557C38.5366 11.2917 39.3961 10.3826 40.66 11.1927C41.0133 11.4193 40.9494 13.0038 40.9498 13.469C40.9524 14.341 40.9498 15.213 40.942 16.0849C41.6441 16.1266 42.4127 16.1109 43.1207 16.11C43.1311 15.3241 43.1296 14.5284 43.1248 13.7441C43.1177 12.6013 43.2146 11.5732 42.8969 10.4617C42.3707 8.62022 39.2736 8.53411 38.5232 10.1462C38.4839 9.839 38.4572 9.52004 38.4271 9.21089ZM32.8747 16.0998C33.5712 16.1131 34.3249 16.1206 35.0209 16.1023C35.0612 15.8813 35.0413 14.1972 35.0413 13.8639L35.04 11.1586C35.0392 10.5246 35.0517 9.82407 34.9935 9.19774C34.354 9.17448 33.6438 9.19111 32.9979 9.20678C32.9574 9.22918 32.8969 9.24674 32.8956 9.29763C32.8356 11.5599 32.9022 13.8353 32.8747 16.0998ZM34.1616 8.12693C34.6009 8.03937 34.9589 7.72222 35.098 7.29722C35.2372 6.87222 35.1361 6.40533 34.8333 6.0757C34.5306 5.74607 34.0734 5.60489 33.637 5.70637C32.9771 5.85981 32.5626 6.51326 32.7058 7.17426C32.8491 7.83526 33.4971 8.25933 34.1616 8.12693Z" fill="var(--fill-0, #57544A)"/>
<path id="Vector_2" d="M36.4846 16.0703C36.4208 16.08 36.4046 16.0856 36.3464 16.0552C36.2603 15.8438 36.302 9.70034 36.3896 9.2789C36.5822 10.0699 36.5475 15.0294 36.4846 16.0703Z" fill="var(--fill-0, #57544A)"/>
</g>
</svg>
