<svg viewBox="30 2 17 18" fill="none" xmlns="http://www.w3.org/2000/svg">
<g id="TikTok [Vectorized]">
<path id="Vector" d="M31.625 2.93111C32.4314 2.89208 33.4528 2.9192 34.2724 2.91938L39.1331 2.9209L43.0384 2.91742C43.7411 2.91641 44.4318 2.91079 45.1427 2.92778C45.6714 2.89847 46.4316 3.38173 46.5339 3.92685C46.6842 4.72981 46.6248 5.75779 46.6245 6.58511L46.6203 10.725L46.6241 15.1868C46.6245 15.9664 46.635 16.7462 46.6143 17.5255C46.5933 18.3184 46.1511 18.8469 45.3841 19.0388C44.86 19.0892 43.6994 19.0576 43.1245 19.0573L38.7583 19.055L34.1751 19.0561C33.5591 19.0571 32.8987 19.0553 32.2876 19.0631C30.1619 19.0903 30.374 17.7447 30.3738 16.185L30.3734 12.8918L30.3735 7.23231C30.3737 6.25544 30.3593 5.25179 30.3937 4.27529C30.4027 4.02282 30.4957 3.79687 30.6387 3.58616C30.8659 3.24505 31.2212 3.00904 31.625 2.93111ZM37.7909 11.4521L37.8826 11.4316C38.0266 11.0629 37.9552 10.2015 37.9319 9.78831C37.6424 9.74199 37.4662 9.73604 37.181 9.80384C36.9892 9.81095 36.7994 9.84466 36.6171 9.90396C33.4912 10.9322 33.1954 15.0407 36.1201 16.4872C38.2846 17.5578 40.8596 16.1067 41.2044 13.7738C41.2833 13.24 41.2488 12.5764 41.2476 12.0268L41.242 9.6736C41.2416 9.45311 41.2202 8.72981 41.2969 8.5748L41.3555 8.5846C41.374 8.67462 41.3852 8.72184 41.4157 8.80838C41.6928 8.99403 41.9473 9.19768 42.2075 9.39029C42.5026 9.60921 43.8377 10.0651 44.1069 9.79617C44.2299 9.52267 44.1693 8.29093 44.1404 7.94581C43.9032 7.90159 43.6979 7.89137 43.4768 7.78702C43.3851 7.60451 43.2053 7.46967 43.0204 7.39166C42.3876 7.12961 42.0552 6.516 41.7029 5.98497C41.5555 5.76243 41.4446 5.12211 41.3491 5.05405C41.1284 4.89694 39.6482 4.97596 39.4802 5.10243C39.3704 5.18504 39.4238 6.99252 39.4234 7.2154L39.4211 12.4752C39.3031 12.2637 39.4741 6.16411 39.3933 6.05333C39.3493 6.26966 39.373 7.26235 39.3745 7.54394L39.379 11.1733C39.3794 11.7742 39.3561 12.438 39.3798 13.034C39.4196 14.0243 38.9557 14.712 37.9157 14.8652C37.9409 14.8922 37.9653 14.9199 37.989 14.948C37.5907 15.1064 37.2668 14.8859 37.0506 14.8293C36.4031 14.6598 36.019 13.5631 35.8406 13.46C35.8297 13.3981 35.821 13.3265 35.8218 13.2639C35.8253 12.7992 36.0153 12.3552 36.3494 12.0306C36.7445 11.6397 37.2371 11.4501 37.7909 11.4521Z" fill="var(--fill-0, #57544A)"/>
<path id="Vector_2" d="M35.8407 13.46C36.019 13.5631 36.4031 14.6598 37.0506 14.8293C37.2668 14.8859 37.5907 15.1064 37.9891 14.948C37.9654 14.9198 37.9409 14.8922 37.9157 14.8652C38.9557 14.712 39.4196 14.0243 39.3798 13.034C39.3561 12.438 39.3794 11.7741 39.379 11.1733L39.3745 7.54392C39.373 7.26233 39.3493 6.26964 39.3933 6.0533C39.4742 6.16409 39.3031 12.2637 39.4212 12.4751L39.4234 7.21538C39.4238 6.99249 39.3704 5.18501 39.4802 5.1024C39.6482 4.97594 41.1285 4.89692 41.3492 5.05403C41.4447 5.12208 41.5556 5.7624 41.703 5.98495C42.0552 6.51598 42.3876 7.12958 43.0204 7.39164C43.2054 7.46965 43.3851 7.60449 43.4768 7.787C42.2466 7.35864 41.4277 6.46921 41.289 5.15703C40.6784 5.13813 40.1836 5.15527 39.5794 5.15654C39.5219 5.83899 39.5494 6.81496 39.5494 7.52454L39.549 11.5774C39.5486 12.0037 39.5964 13.4195 39.4851 13.7774C38.9121 15.6253 36.0941 15.5506 35.8407 13.46Z" fill="var(--fill-0, #57544A)"/>
<path id="Vector_3" d="M37.181 9.80378C37.4663 9.73599 37.6424 9.74194 37.9319 9.78826C37.9552 10.2015 38.0267 11.0628 37.8827 11.4315L37.7909 11.452C37.8338 11.3702 37.7887 11.0918 37.7812 10.9723L37.8282 11.0163C37.9139 10.9089 37.8989 10.3637 37.8425 10.2193L37.7808 10.3393L37.794 9.81396L37.181 9.80378Z" fill="var(--fill-0, #57544A)"/>
<path id="Vector_4" d="M37.7808 10.3394L37.8425 10.2193C37.8988 10.3637 37.9139 10.9089 37.8282 11.0163L37.7812 10.9723C37.7917 10.7678 37.7838 10.5454 37.7808 10.3394Z" fill="var(--fill-0, #57544A)"/>
</g>
</svg>
